<?xml version="1.0" standalone="no"?>
<!DOCTYPE svg PUBLIC "-//W3C//DTD SVG 20010904//EN"
 "http://www.w3.org/TR/2001/REC-SVG-20010904/DTD/svg10.dtd">
<svg version="1.0" xmlns="http://www.w3.org/2000/svg"
 width="512.000000pt" height="512.000000pt" viewBox="0 0 512.000000 512.000000"
 preserveAspectRatio="xMidYMid meet">

<g transform="translate(0.000000,512.000000) scale(0.100000,-0.100000)"
fill="#000000" stroke="none">
<path d="M2384 5110 c-950 -64 -1797 -665 -2172 -1540 -210 -489 -262 -1048
-146 -1570 214 -958 977 -1721 1934 -1934 361 -80 760 -80 1117 0 965 215
1722 972 1937 1937 80 357 80 757 0 1117 -150 673 -575 1264 -1170 1625 -352
215 -739 336 -1164 365 -158 11 -173 11 -336 0z m338 -934 c66 -19 117 -63
144 -121 l24 -50 0 -1445 0 -1445 -24 -50 c-27 -58 -78 -102 -144 -121 -61
-19 -99 -17 -147 5 -22 11 -222 173 -445 360 l-405 341 -335 0 c-328 0 -336 1
-374 23 -25 14 -48 39 -63 66 l-23 44 0 777 0 777 23 44 c15 27 38 52 63 66
38 22 46 23 374 23 l335 0 405 341 c223 187 423 349 445 360 48 22 86 24 147
5z m1434 -1117 c29 -27 39 -75 24 -114 -6 -17 -91 -110 -188 -207 l-176 -178
176 -177 c97 -98 182 -191 188 -208 32 -83 -47 -167 -135 -144 -20 6 -91 69
-210 189 l-179 180 -187 -185 -186 -185 -50 0 c-41 0 -55 5 -77 27 -14 14 -29
37 -32 50 -15 59 1 82 189 271 l182 182 -182 183 c-188 188 -204 211 -189 270
3 13 18 36 32 50 22 22 36 27 77 27 l50 0 186 -185 187 -185 179 180 c119 120
190 183 210 189 38 10 81 -2 111 -30z"/>
</g>
</svg>
