<?xml version="1.0" standalone="no"?>
<!DOCTYPE svg PUBLIC "-//W3C//DTD SVG 20010904//EN"
 "http://www.w3.org/TR/2001/REC-SVG-20010904/DTD/svg10.dtd">
<svg version="1.0" xmlns="http://www.w3.org/2000/svg"
 width="512.000000pt" height="512.000000pt" viewBox="0 0 512.000000 512.000000"
 preserveAspectRatio="xMidYMid meet">

<g transform="translate(0.000000,512.000000) scale(0.100000,-0.100000)"
fill="#000000" stroke="none">
<path d="M2385 5110 c-445 -28 -919 -196 -1295 -459 -278 -195 -538 -473 -713
-763 -218 -361 -341 -757 -367 -1175 -49 -806 289 -1593 905 -2107 182 -151
302 -229 522 -340 695 -347 1551 -347 2246 0 220 111 340 189 522 340 278 232
476 485 649 831 347 695 347 1551 0 2246 -111 220 -189 340 -340 522 -446 534
-1095 861 -1799 905 -163 10 -156 10 -330 0z m369 -945 c46 -22 108 -86 123
-127 17 -48 18 -2893 1 -2950 -17 -58 -87 -124 -150 -143 -67 -20 -104 -19
-153 4 -22 11 -222 173 -445 360 l-405 341 -334 0 -334 0 -43 25 c-28 16 -49
39 -63 68 -21 43 -21 52 -21 817 0 765 0 774 21 817 14 29 35 52 63 68 l43 25
334 0 334 0 405 341 c223 187 423 350 445 360 47 23 123 20 179 -6z m989 -486
c188 -196 327 -450 396 -724 33 -135 45 -234 45 -395 0 -161 -12 -260 -45
-395 -69 -274 -208 -528 -396 -724 -63 -66 -71 -71 -110 -71 -35 0 -48 6 -78
35 -28 28 -35 43 -35 74 0 38 34 97 75 131 31 25 130 162 178 245 63 107 113
233 149 374 39 151 50 388 24 548 -26 169 -96 363 -183 507 -43 71 -142 205
-168 226 -42 35 -75 93 -75 133 0 33 6 46 36 73 28 27 44 34 77 34 39 0 47 -5
110 -71z m-418 -380 c109 -103 213 -287 262 -464 25 -92 28 -115 28 -275 0
-160 -3 -183 -28 -275 -49 -177 -153 -361 -262 -464 -46 -44 -59 -51 -94 -51
-56 0 -111 53 -111 108 0 41 13 65 72 129 122 135 208 364 208 553 0 189 -86
418 -208 553 -59 65 -72 88 -72 131 0 55 54 106 111 106 35 0 48 -7 94 -51z"/>
</g>
</svg>
